<svg width="190" height="193" viewBox="0 0 190 193" fill="none" xmlns="http://www.w3.org/2000/svg">
<path d="M126.243 28.3678C130.413 26.1439 130.494 20.1958 126.387 17.8586L97.9672 1.68833C96.1276 0.641569 93.8724 0.64157 92.0328 1.68833L3.03276 52.3284C1.15791 53.3952 0 55.3863 0 57.5434V90.9602C0 93.629 1.76274 95.977 4.32547 96.7218L55.6745 111.646C58.2373 112.391 60 114.739 60 117.407V124.618C60 126.717 58.9028 128.664 57.1068 129.751L43.8957 137.747C42.0984 138.835 39.863 138.904 38.0024 137.928L8.78646 122.608C4.79135 120.513 0 123.41 0 127.921V142.457C0 144.614 1.15791 146.605 3.03275 147.672L35.0858 165.909C36.9166 166.951 39.1595 166.956 40.9952 165.924L86.6644 140.227C88.5533 139.165 89.7222 137.166 89.7222 134.998V102.136C89.7222 99.5325 88.0427 97.2258 85.5645 96.4263L33.6577 79.6793C31.1796 78.8797 29.5 76.573 29.5 73.9691V70.1211C29.5 67.8941 30.7335 65.8503 32.7038 64.8125L92.2509 33.448C93.9749 32.5399 96.0325 32.5256 97.769 33.4095L104.714 36.9447C106.46 37.8335 108.53 37.8138 110.259 36.8918L126.243 28.3678Z" fill="#30C08D"/>
<path d="M181.187 104.087C185.183 101.966 190 104.863 190 109.387V142.457C190 144.614 188.842 146.605 186.967 147.672L110.506 191.177C106.506 193.453 101.539 190.564 101.539 185.962V65.0865C101.539 62.8778 102.752 60.8476 104.698 59.8018L150.83 35.0018C152.649 34.0239 154.843 34.0503 156.638 35.0717L186.967 52.3284C188.842 53.3952 190 55.3863 190 57.5434V72.0903C190 76.5986 185.214 79.4965 181.219 77.4069L160.318 66.474C158.555 65.5521 156.451 65.5636 154.698 66.5046L133.661 77.8023C131.715 78.8478 130.5 80.8786 130.5 83.0883V139.132C130.5 143.631 135.267 146.529 139.261 144.459L157.761 134.871C159.751 133.839 161 131.785 161 129.544V118.411C161 116.191 162.226 114.153 164.187 113.112L181.187 104.087Z" fill="#30C08D"/>
<path d="M85.0203 157.456C83.1611 156.252 80.7899 156.17 78.8523 157.243L58.74 168.382C54.6668 170.638 54.6038 176.473 58.6273 178.816L80.7025 191.673C84.7025 194.003 89.7222 191.117 89.7222 186.488V163.763C89.7222 161.728 88.6911 159.832 86.9832 158.727L85.0203 157.456Z" fill="#FFD83F"/>
<path d="M52.5 71.7322C52.5 73.0831 53.3734 74.279 54.6603 74.6901L80.6742 83.0001C84.5452 84.2367 88.5 81.3484 88.4999 77.2846L88.4999 61.6609C88.4999 57.2121 83.828 54.3105 79.8401 56.2827L54.2286 68.9488C53.17 69.4723 52.5 70.5511 52.5 71.7322Z" fill="#FFD83F"/>
<path d="M143.468 85.8463C141.714 86.9427 140.648 88.8655 140.648 90.9342L140.648 100.501C140.648 104.909 145.244 107.813 149.225 105.919L170.712 95.6999C175.195 93.5676 175.297 87.2236 170.884 84.9486L159.683 79.1733C157.801 78.2033 155.548 78.2964 153.753 79.4182L143.468 85.8463Z" fill="#FFD83F"/>
</svg>
